<svg width="24" height="24" viewBox="0 0 24 24" fill="none" xmlns="http://www.w3.org/2000/svg">
<g clip-path="url(#clip0_3_53)">
<path d="M24 12.2659C24 11.2821 23.9183 10.5641 23.7415 9.8196H12.2449V14.2602H18.9931C18.8571 15.3637 18.1225 17.0256 16.4898 18.1423L16.4669 18.291L20.1019 21.0428L20.3537 21.0674C22.6666 18.98 24 15.9088 24 12.2659Z" fill="#4285F4"/>
<path d="M12.2449 23.9657C15.551 23.9657 18.3265 22.902 20.3537 21.0674L16.4898 18.1423C15.4558 18.847 14.068 19.3389 12.2449 19.3389C9.00682 19.3389 6.25854 17.2516 5.27886 14.3666L5.13526 14.3785L1.35552 17.237L1.30609 17.3712C3.31968 21.28 7.45574 23.9657 12.2449 23.9657Z" fill="#34A853"/>
<path d="M5.27886 14.3666C5.02036 13.622 4.87076 12.8243 4.87076 12C4.87076 11.1756 5.02036 10.378 5.26526 9.63344L5.25841 9.47487L1.43131 6.57047L1.30609 6.62867C0.476196 8.25071 0 10.0722 0 12C0 13.9278 0.476196 15.7492 1.30609 17.3712L5.27886 14.3666Z" fill="#FBBC05"/>
<path d="M12.2449 4.661C14.5442 4.661 16.0952 5.63155 16.9796 6.44261L20.4353 3.14537C18.3129 1.21757 15.551 0.0342865 12.2449 0.0342865C7.45574 0.0342865 3.31968 2.7199 1.30609 6.62867L5.26526 9.63344C6.25855 6.74838 9.00682 4.661 12.2449 4.661Z" fill="#EB4335"/>
</g>
<defs>
<clipPath id="clip0_3_53">
<rect width="24" height="24" fill="white"/>
</clipPath>
</defs>
</svg>
