<svg width="43" height="43" viewBox="0 0 43 43" fill="none" xmlns="http://www.w3.org/2000/svg">
<mask id="mask0_16_1393" style="mask-type:luminance" maskUnits="userSpaceOnUse" x="0" y="0" width="43" height="43">
<path d="M0 0H43V43H0V0Z" fill="white"/>
</mask>
<g mask="url(#mask0_16_1393)">
<path d="M42.9836 21.4919C42.9836 21.8435 42.975 22.1951 42.9577 22.5465C42.9404 22.8976 42.9146 23.2483 42.88 23.5984C42.8457 23.9484 42.8025 24.2974 42.7509 24.6453C42.6994 24.9931 42.6392 25.3397 42.5707 25.6847C42.5019 26.0295 42.4249 26.3726 42.3395 26.7139C42.2541 27.055 42.1602 27.3938 42.0582 27.7305C41.956 28.067 41.8458 28.4009 41.7272 28.7321C41.6087 29.0634 41.4822 29.3913 41.3476 29.7164C41.2129 30.0413 41.0704 30.3627 40.9202 30.6808C40.7698 30.9986 40.6115 31.3128 40.4458 31.623C40.2801 31.9332 40.1067 32.2391 39.9259 32.5407C39.745 32.8424 39.557 33.1395 39.3615 33.432C39.1662 33.7244 38.9637 34.0119 38.7542 34.2945C38.5447 34.5769 38.3284 34.8541 38.1051 35.126C37.882 35.3979 37.6524 35.6641 37.4161 35.9248C37.1799 36.1854 36.9376 36.44 36.6889 36.6889C36.44 36.9376 36.1854 37.1799 35.9248 37.4161C35.6641 37.6524 35.3979 37.882 35.126 38.1051C34.8541 38.3284 34.5769 38.5447 34.2945 38.7542C34.0119 38.9637 33.7244 39.1662 33.432 39.3615C33.1395 39.557 32.8424 39.745 32.5407 39.9259C32.2391 40.1067 31.9332 40.2801 31.623 40.4458C31.3128 40.6118 30.9986 40.7698 30.6808 40.9202C30.3627 41.0704 30.0413 41.2129 29.7164 41.3476C29.3913 41.4822 29.0634 41.6087 28.7321 41.7272C28.4009 41.8458 28.067 41.956 27.7305 42.0582C27.3938 42.1602 27.055 42.2541 26.7139 42.3395C26.3726 42.4249 26.0295 42.5019 25.6847 42.5707C25.3397 42.6392 24.9931 42.6994 24.6453 42.7509C24.2974 42.8025 23.9484 42.8457 23.5984 42.88C23.2483 42.9146 22.8976 42.9404 22.5465 42.9577C22.1951 42.975 21.8435 42.9836 21.4919 42.9836C21.1401 42.9836 20.7885 42.975 20.4373 42.9577C20.086 42.9404 19.7353 42.9146 19.3852 42.88C19.0351 42.8457 18.6862 42.8025 18.3383 42.7509C17.9904 42.6994 17.6439 42.6392 17.2989 42.5707C16.9541 42.5019 16.611 42.4249 16.2697 42.3395C15.9286 42.2541 15.5897 42.1602 15.253 42.0582C14.9165 41.956 14.5827 41.8458 14.2515 41.7272C13.9202 41.6087 13.5923 41.4822 13.2672 41.3476C12.9423 41.2129 12.6209 41.0704 12.3028 40.9202C11.9849 40.7698 11.6708 40.6118 11.3606 40.4458C11.0504 40.2801 10.7445 40.1067 10.4429 39.9259C10.1412 39.745 9.8441 39.557 9.55161 39.3615C9.25913 39.1662 8.97169 38.9637 8.68906 38.7542C8.40665 38.5447 8.12949 38.3284 7.85759 38.1051C7.58568 37.882 7.31947 37.6524 7.05874 37.4161C6.79822 37.1799 6.54361 36.9376 6.2947 36.6889C6.046 36.44 5.80365 36.1854 5.56743 35.9248C5.33121 35.6641 5.10156 35.3979 4.87848 35.126C4.65518 34.8541 4.43888 34.5769 4.22937 34.2945C4.01987 34.0119 3.81736 33.7244 3.62208 33.432C3.42658 33.1395 3.23853 32.8424 3.0577 32.5407C2.87687 32.2391 2.70348 31.9332 2.53776 31.623C2.37203 31.3128 2.21375 30.9986 2.06335 30.6808C1.91317 30.3627 1.77065 30.0413 1.63601 29.7164C1.50137 29.3913 1.37484 29.0634 1.2564 28.7321C1.13774 28.4009 1.02762 28.067 0.925388 27.7305C0.82337 27.3938 0.729452 27.055 0.644072 26.7139C0.558692 26.3726 0.481631 26.0295 0.412889 25.6847C0.344366 25.3397 0.284162 24.9931 0.232715 24.6453C0.181049 24.2974 0.137922 23.9484 0.103551 23.5984C0.0689607 23.2483 0.0431278 22.8976 0.0258329 22.5465C0.00853799 22.1951 0 21.8435 0 21.4919C0 21.1401 0.00853799 20.7885 0.0258329 20.4373C0.0431278 20.086 0.0689607 19.7353 0.103551 19.3852C0.137922 19.0351 0.181049 18.6862 0.232715 18.3383C0.284162 17.9904 0.344366 17.6439 0.412889 17.2989C0.481631 16.9541 0.558692 16.611 0.644072 16.2697C0.729452 15.9286 0.82337 15.5897 0.925388 15.253C1.02762 14.9165 1.13774 14.5827 1.2564 14.2515C1.37484 13.9202 1.50137 13.5923 1.63601 13.2672C1.77065 12.9423 1.91317 12.6209 2.06335 12.3028C2.21375 11.9849 2.37203 11.6708 2.53776 11.3606C2.70348 11.0504 2.87687 10.7445 3.0577 10.4429C3.23853 10.1412 3.42658 9.8441 3.62208 9.55161C3.81736 9.25913 4.01987 8.97169 4.22937 8.68906C4.43888 8.40665 4.65518 8.12949 4.87848 7.85759C5.10156 7.58568 5.33121 7.31947 5.56743 7.05874C5.80365 6.79822 6.046 6.54361 6.2947 6.2947C6.54361 6.046 6.79822 5.80365 7.05874 5.56743C7.31947 5.33121 7.58568 5.10156 7.85759 4.87848C8.12949 4.65518 8.40665 4.43888 8.68906 4.22937C8.97169 4.01987 9.25913 3.81736 9.55161 3.62208C9.8441 3.42658 10.1412 3.23853 10.4429 3.0577C10.7445 2.87687 11.0504 2.70348 11.3606 2.53776C11.6708 2.37203 11.9849 2.21375 12.3028 2.06335C12.6209 1.91317 12.9423 1.77065 13.2672 1.63601C13.5923 1.50137 13.9202 1.37484 14.2515 1.2564C14.5827 1.13774 14.9165 1.02762 15.253 0.925388C15.5897 0.82337 15.9286 0.729452 16.2697 0.644072C16.611 0.558692 16.9541 0.481631 17.2989 0.412889C17.6439 0.344366 17.9904 0.284162 18.3383 0.232715C18.6862 0.181049 19.0351 0.137922 19.3852 0.103551C19.7353 0.0689607 20.086 0.0431278 20.4373 0.0258329C20.7885 0.00853799 21.1401 0 21.4919 0C21.8435 0 22.1951 0.00853799 22.5465 0.0258329C22.8976 0.0431278 23.2483 0.0689607 23.5984 0.103551C23.9484 0.137922 24.2974 0.181049 24.6453 0.232715C24.9931 0.284162 25.3397 0.344366 25.6847 0.412889C26.0295 0.481631 26.3726 0.558692 26.7139 0.644072C27.055 0.729452 27.3938 0.82337 27.7305 0.925388C28.067 1.02762 28.4009 1.13774 28.7321 1.2564C29.0634 1.37484 29.3913 1.50137 29.7164 1.63601C30.0413 1.77065 30.3627 1.91317 30.6808 2.06335C30.9986 2.21375 31.3128 2.37203 31.623 2.53776C31.9332 2.70348 32.2391 2.87687 32.5407 3.0577C32.8424 3.23853 33.1395 3.42658 33.432 3.62208C33.7244 3.81736 34.0119 4.01987 34.2945 4.22937C34.5769 4.43888 34.8541 4.65518 35.126 4.87848C35.3979 5.10156 35.6641 5.33121 35.9248 5.56743C36.1854 5.80365 36.44 6.046 36.6889 6.2947C36.9376 6.54361 37.1799 6.79822 37.4161 7.05874C37.6524 7.31947 37.882 7.58568 38.1051 7.85759C38.3284 8.12949 38.5447 8.40665 38.7542 8.68906C38.9637 8.97169 39.1662 9.25913 39.3615 9.55161C39.557 9.8441 39.745 10.1412 39.9259 10.4429C40.1067 10.7445 40.2801 11.0504 40.4458 11.3606C40.6115 11.6708 40.7698 11.9849 40.9202 12.3028C41.0704 12.6209 41.2129 12.9423 41.3476 13.2672C41.4822 13.5923 41.6087 13.9202 41.7272 14.2515C41.8458 14.5827 41.956 14.9165 42.0582 15.253C42.1602 15.5897 42.2541 15.9286 42.3395 16.2697C42.4249 16.611 42.5019 16.9541 42.5707 17.2989C42.6392 17.6439 42.6994 17.9904 42.7509 18.3383C42.8025 18.6862 42.8457 19.0351 42.88 19.3852C42.9146 19.7353 42.9404 20.086 42.9577 20.4373C42.975 20.7885 42.9836 21.1401 42.9836 21.4919Z" fill="#00BF63"/>
</g>
<path fill-rule="evenodd" clip-rule="evenodd" d="M11.8018 24.0553C12.0275 23.9101 12.2532 23.749 12.4629 23.5879C15.0103 21.782 17.4287 20.0731 21.0241 22.1528C21.2336 22.1528 21.4917 22.1528 21.7656 22.1366C23.5231 22.0723 26.1673 21.9755 27.3764 23.2008C27.6505 23.4749 27.828 23.7974 27.9246 24.1842C26.6833 25.2162 23.5069 25.6193 21.9753 25.7644C21.8624 25.7804 21.7656 25.8934 21.7818 26.0061C21.798 26.1191 21.8948 26.2158 22.0075 26.1996C23.6842 26.0223 27.3442 25.5387 28.5052 24.0877C28.5695 24.0231 28.6179 23.9425 28.6663 23.862C30.3108 22.6848 32.4874 21.2016 34.0192 21.653C34.5674 21.8142 34.9704 22.2012 35.2121 22.83C35.2767 22.9751 35.2283 23.1686 35.0831 23.2654C33.8418 24.1199 32.7455 24.9259 31.7781 25.6514C27.0379 29.1825 24.6357 30.9721 16.7192 28.8762L15.1554 29.795L11.8018 24.0553Z" fill="white"/>
<path fill-rule="evenodd" clip-rule="evenodd" d="M12.2373 32.7778C12.1082 32.7778 11.9792 32.7132 11.9149 32.6005L7.80348 25.5547C7.7551 25.4741 7.7389 25.3773 7.7551 25.2806C7.78728 25.184 7.85187 25.1033 7.93243 25.0549L10.6088 23.4911C10.7861 23.3943 11.0118 23.4427 11.1086 23.6201L15.2199 30.6497C15.2845 30.7462 15.2845 30.843 15.2683 30.9397C15.2361 31.0203 15.1878 31.1011 15.091 31.1495L12.4147 32.7294C12.3501 32.7616 12.3017 32.7778 12.2373 32.7778Z" fill="white"/>
<path fill-rule="evenodd" clip-rule="evenodd" d="M24.0716 21.4273C23.9749 21.4273 23.8943 21.3951 23.8137 21.3306C21.1856 18.7026 18.4771 15.9777 18.4771 13.2046C18.4771 11.56 19.8151 10.222 21.4597 10.222C22.7496 10.222 23.4913 10.8345 24.0716 11.7857C24.6682 10.8345 25.3937 10.222 26.6996 10.222C28.3441 10.222 29.6824 11.56 29.6824 13.2046C29.6824 15.9777 26.9577 18.7026 24.3295 21.3306C24.2652 21.3951 24.1684 21.4273 24.0716 21.4273Z" fill="white"/>
</svg>
